<?xml version="1.0" encoding="iso-8859-1"?>
<!-- Generator: Adobe Illustrator 19.0.0, SVG Export Plug-In . SVG Version: 6.00 Build 0)  -->
<svg version="1.1" id="Layer_1" xmlns="http://www.w3.org/2000/svg" xmlns:xlink="http://www.w3.org/1999/xlink" x="0px" y="0px"
	 viewBox="0 0 511.997 511.997" style="enable-background:new 0 0 511.997 511.997;" xml:space="preserve">
<g>
	<g>
		<path style="fill:#F0C419;" d="M229.093,149.262c8.687,2.807,33.536,12.868,42.667,12.868c9.131,0,18.219-1.451,26.906-4.258
			c53.538-17.331,84.156-29.517,120.388-27.648C381.507,87.054,326.22,59.73,264.515,59.73c-61.491,0-116.608,27.136-154.146,70.042
			C143.606,129.78,183.781,134.593,229.093,149.262"/>
		<path style="fill:#F0C419;" d="M401.064,281.599c-68.147,7.177-99.524-35.123-104.004-65.161
			c-4.489-30.037-41.062-37.239-41.062-37.239s-20.625,7.202-25.105,37.239s-35.866,72.337-104.004,65.161
			c-31.42-3.311-52.548-12.271-67.132-25.6c0.794,112.427,92.143,213.333,204.757,213.333c113.109,0,204.8-91.691,204.8-204.8
			c0-6.707-0.341-13.329-0.973-19.866C454.832,270.94,446.717,276.794,401.064,281.599"/>
	</g>
	<g>
		<path style="fill:#B79321;" d="M503.464,295.171c-2.517,0-5.009-1.109-6.699-3.234c-6.699-8.465-20.13-15.223-37.811-19.046
			c-4.599-1.007-7.535-5.547-6.536-10.146c0.998-4.608,5.513-7.569,10.146-6.537c15.241,3.285,35.857,10.325,47.59,25.131
			c2.918,3.703,2.295,9.062-1.399,11.989C507.193,294.573,505.324,295.171,503.464,295.171"/>
		<path style="fill:#B79321;" d="M503.464,354.904c-2.543,0-5.06-1.135-6.75-3.302c-11.819-15.232-40.482-30.532-77.943-30.532
			c-0.213,0-0.461-0.043-0.64,0c-4.693,0-8.516-3.797-8.533-8.499c-0.017-4.71,3.78-8.55,8.499-8.567h0.649
			c38.067,0,73.907,14.541,91.46,37.137c2.884,3.721,2.21,9.079-1.51,11.972C507.142,354.324,505.29,354.904,503.464,354.904"/>
		<path style="fill:#B79321;" d="M8.53,298.665c-1.86,0-3.729-0.597-5.291-1.843c-3.695-2.927-4.318-8.286-1.399-11.989
			c11.725-14.797,32.35-21.845,47.582-25.131c4.625-1.033,9.148,1.929,10.146,6.537c0.998,4.599-1.929,9.139-6.537,10.146
			c-17.681,3.823-31.113,10.581-37.803,19.046C13.539,297.556,11.048,298.665,8.53,298.665"/>
		<path style="fill:#B79321;" d="M8.53,358.399c-1.826,0-3.669-0.58-5.231-1.792c-3.721-2.893-4.395-8.252-1.51-11.972
			c17.647-22.724,54.05-37.282,92.109-37.137c4.719,0.017,8.516,3.857,8.499,8.568c-0.017,4.702-3.84,8.499-8.533,8.499
			c-0.239,0.026-0.427,0-0.64,0c-37.47,0-66.125,15.3-77.943,30.532C13.591,357.264,11.073,358.399,8.53,358.399"/>
		<path style="fill:#B79321;" d="M196.25,341.332c10.556,29.807,34.842,51.2,68.267,51.2s57.711-21.393,68.267-51.2
			C287.685,364.159,239.207,364.013,196.25,341.332"/>
		<path style="fill:#B79321;" d="M418.947,130.217c6.255,0.324,12.177,0.811,17.809,1.417l32.785-88.969L359.623,83.164
			C382.245,95.051,402.307,111.103,418.947,130.217"/>
		<path style="fill:#B79321;" d="M110.463,129.777c16.563-18.927,36.497-34.816,58.957-46.618L59.502,42.669l32.282,87.62
			C97.74,129.965,103.96,129.777,110.463,129.777"/>
	</g>
	<path style="fill:#2C3E50;" d="M264.53,153.523L264.53,153.523c-9.131,0-18.219-1.451-26.906-4.258
		c-132.053-42.743-220.561-1.852-220.561-1.852v28.689c17.929,0.452,21.521,21.521,21.521,21.521
		c8.516,56.038,28.689,86.076,96.836,93.252c68.139,7.168,99.524-44.399,104.004-74.436s25.105-28.698,25.105-28.698
		s20.625-1.34,25.105,28.698c4.48,30.037,35.866,81.604,104.004,74.436c68.147-7.177,88.32-37.214,96.836-93.252
		c0,0,3.593-21.069,21.521-21.521v-28.689c0,0-88.508-40.892-220.561,1.852C282.749,152.072,273.661,153.523,264.53,153.523"/>
	<path style="fill:#546777;" d="M76.797,204.799c-2.185,0-4.369-0.836-6.033-2.5c-3.337-3.337-3.337-8.73,0-12.066l25.6-25.6
		c3.337-3.337,8.73-3.337,12.066,0s3.337,8.73,0,12.066l-25.6,25.6C81.166,203.962,78.982,204.799,76.797,204.799"/>
</g>
<g>
</g>
<g>
</g>
<g>
</g>
<g>
</g>
<g>
</g>
<g>
</g>
<g>
</g>
<g>
</g>
<g>
</g>
<g>
</g>
<g>
</g>
<g>
</g>
<g>
</g>
<g>
</g>
<g>
</g>
</svg>
